<?xml version="1.0" encoding="utf-8"?>
<!-- Generator: Adobe Illustrator 23.0.2, SVG Export Plug-In . SVG Version: 6.00 Build 0)  -->
<svg version="1.1" id="Layer_1" xmlns="http://www.w3.org/2000/svg" xmlns:xlink="http://www.w3.org/1999/xlink" x="0px" y="0px"
	 viewBox="0 0 640 304" style="enable-background:new 0 0 640 304;" xml:space="preserve" preserveAspectRatio="none">
<style type="text/css">
	.st0{fill:url(#bvUJiaPLx_1_);}
	.st1{fill:url(#SVGID_1_);}
	.st2{fill:url(#SVGID_2_);fill-opacity:0;}
</style>
<g>
	<g>
		<g>
			<g>
				
					<linearGradient id="bvUJiaPLx_1_" gradientUnits="userSpaceOnUse" x1="319.95" y1="550" x2="319.95" y2="860" gradientTransform="matrix(1 0 0 1 0 -550)">
					<stop  offset="0" style="stop-color:#FFFFFF"/>
					<stop  offset="1" style="stop-color:#000000"/>
				</linearGradient>
				<path id="bvUJiaPLx" class="st0" d="M1,308.1l640,1.9V0c-8.3,28-13.6,45.6-15.6,52.5c-2,6.8-9.7,12.2-19.6,13.7
					c-4.7,0.7-0.4,0.2-4.6,0.7c-11.5,1.7-20.3,8.1-22.2,16.2c-2,8.1-5.5,22.6-7.7,31.7c-1.2,5.1-8.5,8.1-15.6,6.6
					c-7.3-1.5-3-0.7-7.1-1.5c-17.1-3.5-35.5,1.9-43.5,12.9c-2.3,3.1-0.4,0.5-4,5.6c-4.3,5.9-14.5,8.3-23.1,5.4
					c-12.2-4-15-5.1-22.6-7.4c-22.3-7.3-49-2.7-63.6,11.2c-9.9,9.3-8.1,7.6-16.4,15.4c-15.4,14.5-47.4,13.1-59.9-2.7
					c-5.7-7.3,4.2,5.3-1.5-1.9c-16.2-20.5-49.7-31.2-82.8-26.9c-11.7,1.5-7.3,1-23.1,3c-22.7,3-46.2,0.2-66.2-7.8
					c-11-4.4-21.7-7.1-32.2-8c-32.4-3-39.4-2.2-64.3,5.1c-16.6,4.8-32.1,15.4-46.5,32.2L1,308.1z"/>
			</g>
			<g>
				
					<linearGradient id="SVGID_1_" gradientUnits="userSpaceOnUse" x1="319.95" y1="550" x2="319.95" y2="860" gradientTransform="matrix(1 0 0 1 0 -550)">
					<stop  offset="0" style="stop-color:#FFFFFF"/>
					<stop  offset="1" style="stop-color:#000000"/>
				</linearGradient>
				<path class="st1" d="M1,308.1l640,1.9V0c-8.3,28-13.6,45.6-15.6,52.5c-2,6.8-9.7,12.2-19.6,13.7c-4.7,0.7-0.4,0.2-4.6,0.7
					c-11.5,1.7-20.3,8.1-22.2,16.2c-2,8.1-5.5,22.6-7.7,31.7c-1.2,5.1-8.5,8.1-15.6,6.6c-7.3-1.5-3-0.7-7.1-1.5
					c-17.1-3.5-35.5,1.9-43.5,12.9c-2.3,3.1-0.4,0.5-4,5.6c-4.3,5.9-14.5,8.3-23.1,5.4c-12.2-4-15-5.1-22.6-7.4
					c-22.3-7.3-49-2.7-63.6,11.2c-9.9,9.3-8.1,7.6-16.4,15.4c-15.4,14.5-47.4,13.1-59.9-2.7c-5.7-7.3,4.2,5.3-1.5-1.9
					c-16.2-20.5-49.7-31.2-82.8-26.9c-11.7,1.5-7.3,1-23.1,3c-22.7,3-46.2,0.2-66.2-7.8c-11-4.4-21.7-7.1-32.2-8
					c-32.4-3-39.4-2.2-64.3,5.1c-16.6,4.8-32.1,15.4-46.5,32.2L1,308.1z"/>
			</g>
			<g>
				<g>
					
						<linearGradient id="SVGID_2_" gradientUnits="userSpaceOnUse" x1="319.95" y1="550" x2="319.95" y2="860" gradientTransform="matrix(1 0 0 1 0 -550)">
						<stop  offset="0" style="stop-color:#FFFFFF"/>
						<stop  offset="1" style="stop-color:#000000"/>
					</linearGradient>
					<path class="st2" d="M1,308.1l640,1.9V0c-8.3,28-13.6,45.6-15.6,52.5c-2,6.8-9.7,12.2-19.6,13.7c-4.7,0.7-0.4,0.2-4.6,0.7
						c-11.5,1.7-20.3,8.1-22.2,16.2c-2,8.1-5.5,22.6-7.7,31.7c-1.2,5.1-8.5,8.1-15.6,6.6c-7.3-1.5-3-0.7-7.1-1.5
						c-17.1-3.5-35.5,1.9-43.5,12.9c-2.3,3.1-0.4,0.5-4,5.6c-4.3,5.9-14.5,8.3-23.1,5.4c-12.2-4-15-5.1-22.6-7.4
						c-22.3-7.3-49-2.7-63.6,11.2c-9.9,9.3-8.1,7.6-16.4,15.4c-15.4,14.5-47.4,13.1-59.9-2.7c-5.7-7.3,4.2,5.3-1.5-1.9
						c-16.2-20.5-49.7-31.2-82.8-26.9c-11.7,1.5-7.3,1-23.1,3c-22.7,3-46.2,0.2-66.2-7.8c-11-4.4-21.7-7.1-32.2-8
						c-32.4-3-39.4-2.2-64.3,5.1c-16.6,4.8-32.1,15.4-46.5,32.2L1,308.1z"/>
				</g>
			</g>
		</g>
	</g>
</g>
</svg>
