<?xml version="1.0" encoding="utf-8"?>
<!-- Generator: Adobe Illustrator 23.0.2, SVG Export Plug-In . SVG Version: 6.00 Build 0)  -->
<svg version="1.1" id="Layer_1" xmlns="http://www.w3.org/2000/svg" xmlns:xlink="http://www.w3.org/1999/xlink" x="0px" y="0px"
	 viewBox="0 0 640 119" style="enable-background:new 0 0 640 119;" xml:space="preserve">
<style type="text/css">
	.st0{fill:url(#a16D9UqGhc_1_);}
	.st1{fill:url(#SVGID_1_);}
	.st2{fill-opacity:0;}
</style>
<g>
	<g>
		<g>
			<g>
				
					<linearGradient id="a16D9UqGhc_1_" gradientUnits="userSpaceOnUse" x1="319.95" y1="150" x2="319.95" y2="251.0469" gradientTransform="matrix(1 0 0 1 0 -150)">
					<stop  offset="0" style="stop-color:#CBAD15"/>
					<stop  offset="1" style="stop-color:#010000"/>
				</linearGradient>
				<path id="a16D9UqGhc" class="st0" d="M639,0.7L-1,0v112c8.6-10.4,13.9-16.9,16.1-19.5c1.8-2.2,4.9-3.6,8.3-3.8
					c6.9-0.4,21.3-1.2,28-1.6c3.9-0.2,7.5-2,9.3-4.7c2.1-3.1,6-8.9,8.3-12.2c1.3-1.9,3.9-2.9,6.6-2.7c9.1,0.7,27.4,2.1,35.4,2.7
					c6.5,0.5,13.1-0.7,18.5-3.5c3.4-1.7,8.2-4.1,12.3-6.1c3-1.5,6.7-2.1,10.2-1.7c14.2,1.7,44.7,5.3,57.2,6.8
					c9,1.1,18.2,0.1,26.5-2.7c12.4-4.2,33.5-11.5,45-15.4c10.5-3.6,22.6-3,32.5,1.4c8,3.6,16,7.3,24,10.9
					c10.4,4.7,22.4,6.9,34.4,6.3c19.1-0.9,63.2-3,83.7-4c7.8-0.4,15.6,0.1,23.1,1.5c16.8,3,34.1,4.8,51.7,5.4
					c32.4,1.1,39.4,0.8,64.3-1.8c16.6-1.7,32.1-5.6,46.5-11.6L639,0.7z"/>
			</g>
			<g>
				
					<linearGradient id="SVGID_1_" gradientUnits="userSpaceOnUse" x1="319.95" y1="122.0038" x2="319.95" y2="230.8254" gradientTransform="matrix(1 0 0 1 0 -150)">
					<stop  offset="0" style="stop-color:#2F3D63"/>
					<stop  offset="1" style="stop-color:#621818"/>
				</linearGradient>
				<path class="st1" d="M639,0.7L-1,0v112c8.6-10.4,13.9-16.9,16.1-19.5c1.8-2.2,4.9-3.6,8.3-3.8c6.9-0.4,21.3-1.2,28-1.6
					c3.9-0.2,7.5-2,9.3-4.7c2.1-3.1,6-8.9,8.3-12.2c1.3-1.9,3.9-2.9,6.6-2.7c9.1,0.7,27.4,2.1,35.4,2.7c6.5,0.5,13.1-0.7,18.5-3.5
					c3.4-1.7,8.2-4.1,12.3-6.1c3-1.5,6.7-2.1,10.2-1.7c14.2,1.7,44.7,5.3,57.2,6.8c9,1.1,18.2,0.1,26.5-2.7
					c12.4-4.2,33.5-11.5,45-15.4c10.5-3.6,22.6-3,32.5,1.4c8,3.6,16,7.3,24,10.9c10.4,4.7,22.4,6.9,34.4,6.3c19.1-0.9,63.2-3,83.7-4
					c7.8-0.4,15.6,0.1,23.1,1.5c16.8,3,34.1,4.8,51.7,5.4c32.4,1.1,39.4,0.8,64.3-1.8c16.6-1.7,32.1-5.6,46.5-11.6L639,0.7z"/>
			</g>
			<g>
				<g>
					<path class="st2" d="M639,0.7L-1,0v112c8.6-10.4,13.9-16.9,16.1-19.5c1.8-2.2,4.9-3.6,8.3-3.8c6.9-0.4,21.3-1.2,28-1.6
						c3.9-0.2,7.5-2,9.3-4.7c2.1-3.1,6-8.9,8.3-12.2c1.3-1.9,3.9-2.9,6.6-2.7c9.1,0.7,27.4,2.1,35.4,2.7c6.5,0.5,13.1-0.7,18.5-3.5
						c3.4-1.7,8.2-4.1,12.3-6.1c3-1.5,6.7-2.1,10.2-1.7c14.2,1.7,44.7,5.3,57.2,6.8c9,1.1,18.2,0.1,26.5-2.7
						c12.4-4.2,33.5-11.5,45-15.4c10.5-3.6,22.6-3,32.5,1.4c8,3.6,16,7.3,24,10.9c10.4,4.7,22.4,6.9,34.4,6.3
						c19.1-0.9,63.2-3,83.7-4c7.8-0.4,15.6,0.1,23.1,1.5c16.8,3,34.1,4.8,51.7,5.4c32.4,1.1,39.4,0.8,64.3-1.8
						c16.6-1.7,32.1-5.6,46.5-11.6L639,0.7z"/>
				</g>
			</g>
		</g>
	</g>
</g>
</svg>
